<svg width="393" height="127" viewBox="0 0 393 127" fill="none" xmlns="http://www.w3.org/2000/svg">
<path d="M2.33032 124.596H12.2598L12.2686 3.31396H2.33032V124.596Z" fill="#FFDC00"/>
<path d="M42.0451 3.31396H22.1892V124.596H42.0451V3.31396Z" fill="#FFDC00"/>
<path d="M91.6892 3.31396H61.9009V124.596H91.6892V3.31396Z" fill="#FFDC00"/>
<path d="M171.119 3.31396H121.475V124.596H171.119V3.31396Z" fill="#FFDC00"/>
<path d="M230.479 18.4758H210.834V109.406H230.479V18.4758Z" fill="white"/>
<path d="M240.734 35.2844V18.4731H313.92V35.2844H287.148V109.406H267.505V35.2844H240.734Z" fill="white"/>
<path d="M357.207 18.4731H337.064L303.285 109.403H323.05L330.072 89.1518H363.473L370.229 109.403H390.62L357.207 18.4731ZM335.186 74.2524L346.824 40.8981H347.072L358.33 74.2524H335.186Z" fill="white"/>
</svg>
