<svg width="648" height="390" viewBox="0 0 648 390" fill="none" xmlns="http://www.w3.org/2000/svg">
    <g id="Group 102">
        <g id="Group 100">
            <path id="Path 1465" d="M374.023 313.324C372.51 313.324 371.031 313.772 369.773 314.61C368.515 315.449 367.535 316.641 366.956 318.036C366.377 319.431 366.226 320.966 366.521 322.447C366.816 323.928 367.545 325.288 368.614 326.355C369.684 327.423 371.047 328.15 372.53 328.444C374.014 328.739 375.552 328.588 376.949 328.01C378.347 327.432 379.542 326.454 380.382 325.199C381.222 323.943 381.671 322.467 381.671 320.958C381.671 318.933 380.865 316.991 379.431 315.56C377.996 314.128 376.051 313.324 374.023 313.324ZM374.023 325.655C373.092 325.655 372.182 325.38 371.407 324.864C370.633 324.347 370.03 323.614 369.674 322.755C369.318 321.897 369.224 320.952 369.406 320.041C369.588 319.13 370.036 318.293 370.694 317.636C371.353 316.979 372.191 316.531 373.104 316.35C374.017 316.169 374.964 316.262 375.824 316.617C376.684 316.973 377.419 317.575 377.936 318.348C378.453 319.12 378.729 320.028 378.729 320.958C378.729 322.203 378.234 323.398 377.351 324.279C376.468 325.16 375.271 325.655 374.023 325.655Z" fill="#E4E4E4"/>
            <path id="Path 1467" d="M344.605 307.452H374.022V336.51C374.022 337.525 373.619 338.498 372.9 339.215C372.181 339.932 371.207 340.335 370.19 340.335H348.437C347.421 340.335 346.446 339.932 345.727 339.215C345.008 338.498 344.605 337.525 344.605 336.51V307.452Z" fill="#E4E4E4"/>
        </g>
        <path id="Path 944" d="M442.756 341H0.596627C0.432651 340.982 0.281088 340.904 0.170987 340.782C0.0608867 340.659 0 340.5 0 340.336C0 340.171 0.0608867 340.012 0.170987 339.89C0.281088 339.767 0.432651 339.689 0.596627 339.671H442.756C442.92 339.689 443.072 339.767 443.182 339.89C443.292 340.012 443.353 340.171 443.353 340.336C443.353 340.5 443.292 340.659 443.182 340.782C443.072 340.904 442.92 340.982 442.756 341Z" fill="#CACACA"/>
        <path id="Vector" d="M59.5171 328.45L56.7826 341.945L107.635 358.896L111.671 338.978L59.5171 328.45Z" fill="#FFB6B6"/>
        <path id="Vector_2" d="M64.6297 325.899L59.2436 352.476L59.2434 352.477C58.3327 356.969 55.6716 360.915 51.8455 363.449C48.0193 365.983 43.3415 366.896 38.8409 365.987L38.2895 365.876L47.1081 322.362L64.6297 325.899Z" fill="#2F2E41"/>
        <path id="Ellipse 276" d="M117.143 142.563C136.213 142.563 151.672 127.134 151.672 108.101C151.672 89.0688 136.213 73.6399 117.143 73.6399C98.0738 73.6399 82.6147 89.0688 82.6147 108.101C82.6147 127.134 98.0738 142.563 117.143 142.563Z" fill="#FEB8B8"/>
        <path id="Path 1461" d="M149.394 78.3705C144.231 70.004 136.151 63.8391 126.707 61.0624L122.468 64.1497V60.1409C120.2 59.7945 117.905 59.661 115.612 59.7423L111.955 63.0449V60.0167C106.54 60.6883 101.323 62.4723 96.6337 65.2562C91.9441 68.0402 87.8834 71.7637 84.7076 76.192C76.7655 87.6191 75.4249 103.517 83.2365 115.036C85.3806 108.458 87.9833 102.287 90.1281 95.7105C91.8134 95.9398 93.5216 95.948 95.2091 95.7351L97.8179 89.6594L98.5468 95.478C106.633 94.7751 118.627 93.2311 126.293 91.8166L125.547 87.3527L130.007 91.0619C132.356 90.5224 133.75 90.0328 133.635 89.6588C139.337 98.8323 146.314 104.691 152.015 113.865C154.18 100.93 156.673 90.1743 149.394 78.3705Z" fill="#2F2E41"/>
        <path id="Ellipse 260" d="M128.378 333.609C177.479 333.609 217.284 322.497 217.284 308.789C217.284 295.081 177.479 283.969 128.378 283.969C79.2763 283.969 39.4716 295.081 39.4716 308.789C39.4716 322.497 79.2763 333.609 128.378 333.609Z" fill="#2F2E41"/>
        <path id="Vector_3" d="M191.405 196.72C190.218 189.59 188.993 182.324 185.673 175.902C183.491 171.695 180.028 167.686 175.358 166.854C174.439 166.773 173.535 166.564 172.673 166.234C171.305 165.576 152.92 155.102 149.998 153.277C147.489 151.711 143.529 148.811 141.532 148.811C139.523 148.767 131.819 150.557 101.751 148.211C96.6937 150.237 91.796 152.64 87.0999 155.401C87.003 155.337 55.8923 172.011 54.7234 171.967C52.51 171.874 50.4525 173.288 49.1836 175.069C47.915 176.851 47.3199 179.056 46.6968 181.187C53.4919 196.291 59.7091 211.413 66.5049 226.516C66.8231 227.085 66.9921 227.725 66.9963 228.376C66.8598 229.052 66.5707 229.688 66.1509 230.236C62.8184 235.579 62.9243 242.299 63.2884 248.579C63.6527 254.858 64.1032 261.491 61.2914 267.12C60.5266 268.665 59.532 270.08 58.8046 271.625C57.1011 275.125 56.4855 286.319 57.4804 290.079L182.137 293.643C179.457 286.29 191.405 196.72 191.405 196.72Z" fill="#F1F1F1"/>
        <path id="Path 1421" d="M35.9216 227.186C35.6728 228.981 35.6478 230.801 35.847 232.603L37.6337 258.211C37.8014 260.625 37.9665 263.033 38.1935 265.44C38.6222 270.113 39.2625 274.748 40.0574 279.377C40.0753 280.034 40.3538 280.657 40.8316 281.11C41.3095 281.562 41.9477 281.807 42.6062 281.79C50.471 283.451 58.5968 283.385 66.6234 282.933C78.8717 282.25 110.207 280.959 112.122 278.477C114.036 275.995 112.92 271.98 110.424 269.973C107.928 267.966 66.5761 263.073 66.5761 263.073C66.9802 259.878 68.199 256.868 69.3553 253.834C71.4322 248.453 73.3719 242.894 73.4092 237.13C73.4465 231.365 71.2704 225.304 66.5389 222.001C62.6467 219.29 57.6356 218.787 52.8927 218.899C49.4419 218.998 43.4795 218.173 40.3276 219.519C37.8334 220.616 36.3875 224.748 35.9216 227.186Z" fill="#FBBEBE"/>
        <path id="Path 1423" d="M191.626 285.074C193.696 284.286 195.978 284.571 198.198 284.869C205.342 285.843 212.591 286.842 219.212 289.69C222.321 291.019 225.28 292.793 227.382 295.404C229.246 297.756 230.335 300.635 231.367 303.471L233.755 309.999C234.77 312.451 235.47 315.022 235.838 317.65C236.584 325.462 231.231 332.827 224.497 336.886C217.764 340.944 209.837 342.389 202.115 343.903C194.393 345.417 186.64 347.092 178.95 348.867C175.363 349.797 171.723 350.511 168.051 351.008C159.819 351.938 151.215 350.568 143.393 353.286C140.285 354.372 137.232 355.985 134.007 356.736C131.864 357.186 129.697 357.515 127.517 357.722L112.713 359.41C109.703 359.811 106.673 360.043 103.636 360.105C97.1708 360.105 90.8104 358.577 84.5319 357.049C83.8647 356.931 83.2297 356.676 82.668 356.298C81.6735 355.516 81.4558 354.132 81.3127 352.879C80.6785 347.331 80.1238 341.778 79.6485 336.219C79.4994 334.413 79.3876 332.458 80.3761 330.938C81.6196 329.078 84.0446 328.493 86.2579 328.133C95.6433 326.601 105.151 325.942 114.659 326.166C118.27 322.561 124.227 322.543 128.958 320.581C130.699 319.784 132.384 318.869 134.001 317.845C142.464 312.917 151.922 309.934 161.686 309.114C163.598 309.056 165.498 308.786 167.35 308.308C171.011 307.173 174.351 304.082 178.112 304.839C178.578 303.555 178.901 301.836 179.976 300.955C180.508 300.502 181.169 300.198 181.66 299.714C182.699 298.665 182.792 297.014 182.636 295.55C182.481 294.086 182.132 292.584 182.512 291.157C182.67 290.616 182.902 290.1 183.202 289.624C185.061 286.414 187.877 284.763 191.626 285.074Z" fill="#2F2E41"/>
        <path id="Path 1430" d="M46.3373 181.647C45.7317 182.28 45.2621 183.03 44.9574 183.85C39.9318 195.154 36.9634 207.261 36.1912 219.604C36.2047 220.206 36.0658 220.801 35.7871 221.335C35.5124 221.69 35.2065 222.021 34.8732 222.322C34.5826 222.666 34.3626 223.063 34.226 223.492C34.0893 223.92 34.0386 224.372 34.0767 224.82C34.1149 225.268 34.2411 225.705 34.4481 226.104C34.6552 226.504 34.9391 226.859 35.2836 227.149C35.3401 227.196 35.3981 227.242 35.4576 227.286C36.4834 225.359 38.9391 224.729 41.1218 224.562C51.5727 223.737 61.7814 228.589 72.2636 228.223C71.5241 225.673 70.4603 223.222 69.8572 220.641C67.1899 209.18 73.8426 196.702 69.764 185.663C68.9493 183.454 67.588 181.282 65.4432 180.314C64.5551 179.956 63.6257 179.711 62.6767 179.583C60.028 179.105 54.7553 177.064 52.1945 177.883C51.2492 178.187 50.8764 179.074 50.093 179.61C48.9027 180.369 47.3238 180.648 46.3373 181.647Z" fill="#F1F1F1"/>
        <path id="Path 1421_2" d="M191.48 219.519C188.328 218.173 182.365 218.998 178.915 218.899C174.172 218.787 169.161 219.29 165.268 222.001C160.537 225.304 158.361 231.365 158.398 237.13C158.435 242.894 160.375 248.453 162.452 253.834C163.608 256.868 164.827 259.878 165.231 263.073C165.231 263.073 123.879 267.966 121.383 269.973C118.887 271.98 117.771 275.995 119.686 278.477C121.6 280.959 181.336 283.451 189.201 281.79C189.86 281.807 190.498 281.562 190.976 281.11C191.453 280.657 191.732 280.034 191.75 279.377C192.545 274.748 193.185 270.113 193.614 265.44C193.841 263.033 194.006 260.625 194.174 258.211L195.96 232.603C196.159 230.801 196.134 228.981 195.886 227.186C195.42 224.748 193.974 220.616 191.48 219.519Z" fill="#FBBEBE"/>
        <path id="Path 1430_2" d="M181.714 179.61C180.931 179.074 180.558 178.187 179.613 177.883C177.052 177.064 171.779 179.105 169.13 179.583C168.181 179.711 167.252 179.956 166.364 180.314C164.219 181.282 162.858 183.454 162.043 185.663C157.965 196.702 164.617 209.18 161.95 220.641C161.347 223.222 160.283 225.673 159.544 228.223C170.026 228.589 180.234 223.737 190.685 224.562C192.868 224.729 195.324 225.359 196.35 227.286C196.409 227.242 196.467 227.196 196.524 227.149C196.868 226.859 197.152 226.504 197.359 226.104C197.566 225.705 197.692 225.268 197.73 224.82C197.769 224.372 197.718 223.92 197.581 223.492C197.445 223.063 197.225 222.666 196.934 222.322C196.601 222.021 196.295 221.69 196.02 221.335C195.741 220.801 195.602 220.206 195.616 219.604C194.844 207.261 191.875 195.154 186.85 183.85C186.545 183.03 186.075 182.28 185.47 181.647C184.483 180.648 182.904 180.369 181.714 179.61Z" fill="#F1F1F1"/>
        <path id="Vector_4" d="M199.196 347.715L197.378 361.363L143.767 360.861L146.45 340.718L199.196 347.715Z" fill="#FFB6B6"/>
        <path id="Vector_5" d="M212.915 345.992L207.055 390L206.497 389.926C201.945 389.322 197.82 386.938 195.03 383.299C192.239 379.66 191.01 375.064 191.615 370.521L191.615 370.52L195.195 343.641L212.915 345.992Z" fill="#2F2E41"/>
        <path id="Path 1427" d="M73.0698 291.981C73.0698 292.601 72.0939 291.981 72.0047 291.316C71.3211 286.296 67.3291 282.157 62.6787 280.147C58.0284 278.136 52.731 278.031 47.6953 278.509C40.0794 279.228 31.5302 282.139 28.7451 289.243C28.0861 290.904 21.9127 305.693 22.5151 309.019C24.138 317.892 30.2182 325.481 37.5858 330.737C44.9534 335.993 53.5618 339.133 62.1489 341.965C84.8522 349.438 108.146 354.99 131.782 358.563C135.612 359.141 139.479 359.674 143.147 360.903C146.429 362.001 149.501 363.645 152.709 364.936C160.17 367.926 168.197 368.994 176.148 370.043C177.503 370.217 179.058 370.341 180.059 369.422C181.352 368.227 180.924 366.14 180.556 364.421C179.207 357.886 180.339 351.083 183.733 345.335C185.065 343.101 186.795 340.811 186.544 338.226C186.246 335.21 183.236 333.076 180.239 332.591C177.242 332.107 174.196 332.821 171.186 333.212C170.155 333.448 169.074 333.341 168.109 332.908C167.662 332.606 167.256 332.248 166.903 331.841C164.83 329.845 162.177 328.555 159.324 328.157C156.471 327.759 153.566 328.273 151.024 329.626C149.911 330.246 148.228 328.862 147.07 328.341L133.995 322.434C118.974 315.652 103.879 308.838 87.9873 304.544C86.7193 304.296 85.5142 303.795 84.4433 303.073C83.6539 302.453 83.0881 301.612 82.3605 300.92C80.7749 299.425 78.5662 298.829 76.6657 297.768C74.7652 296.707 72.6344 294.109 73.0698 291.981Z" fill="#2F2E41"/>
        <path id="Vector_6" d="M106.917 283.013C112.064 283.013 116.236 278.849 116.236 273.712C116.236 268.575 112.064 264.411 106.917 264.411C101.77 264.411 97.5978 268.575 97.5978 273.712C97.5978 278.849 101.77 283.013 106.917 283.013Z" fill="#FBBEBE"/>
        <path id="Vector_7" d="M127.553 283.013C132.7 283.013 136.872 278.849 136.872 273.712C136.872 268.575 132.7 264.411 127.553 264.411C122.406 264.411 118.233 268.575 118.233 273.712C118.233 278.849 122.406 283.013 127.553 283.013Z" fill="#FBBEBE"/>
        <path id="Vector_8" d="M185.079 294.671H57.0453C55.5505 294.67 54.1174 294.076 53.0604 293.021C52.0034 291.966 51.4088 290.536 51.407 289.044V211.522C51.4088 210.03 52.0034 208.599 53.0604 207.544C54.1174 206.49 55.5505 205.896 57.0453 205.895H185.079C186.574 205.896 188.007 206.49 189.064 207.544C190.121 208.599 190.715 210.03 190.717 211.522V289.044C190.715 290.536 190.121 291.966 189.064 293.021C188.007 294.076 186.574 294.67 185.079 294.671Z" fill="#3F3D56"/>
        <path id="Ellipse 263" d="M120.751 254.006C122.812 254.006 124.482 252.339 124.482 250.283C124.482 248.227 122.812 246.56 120.751 246.56C118.691 246.56 117.021 248.227 117.021 250.283C117.021 252.339 118.691 254.006 120.751 254.006Z" fill="white"/>
        <path id="line2" d="M577.817 139.817H411.472C410.59 139.816 409.744 139.466 409.12 138.843C408.496 138.221 408.145 137.376 408.144 136.495V105.204H409.475V136.495C409.476 137.024 409.687 137.531 410.061 137.904C410.435 138.278 410.943 138.488 411.472 138.489H577.817C578.347 138.488 578.855 138.278 579.229 137.904C579.603 137.531 579.814 137.024 579.814 136.495V104.985H581.146V136.495C581.145 137.376 580.794 138.221 580.17 138.843C579.546 139.466 578.7 139.816 577.817 139.817Z" fill="#3F3D56"/>
        <path id="line1" d="M638.118 104.54H247.226V105.868H638.118V104.54Z" fill="#3F3D56"/>
        <path id="elipse1" d="M247.254 116.528C253.579 116.528 258.705 111.412 258.705 105.1C258.705 98.7883 253.579 93.6716 247.254 93.6716C240.93 93.6716 235.804 98.7883 235.804 105.1C235.804 111.412 240.93 116.528 247.254 116.528Z" fill="#F1F1F1"/>
        <path id="alipse3" d="M363.616 116.528C369.94 116.528 375.067 111.412 375.067 105.1C375.067 98.7883 369.94 93.6716 363.616 93.6716C357.292 93.6716 352.166 98.7883 352.166 105.1C352.166 111.412 357.292 116.528 363.616 116.528Z" fill="#F1F1F1"/>
        <path id="elipse4" d="M442.585 150.12C448.909 150.12 454.036 145.003 454.036 138.691C454.036 132.379 448.909 127.263 442.585 127.263C436.261 127.263 431.135 132.379 431.135 138.691C431.135 145.003 436.261 150.12 442.585 150.12Z" fill="#3F3D56"/>
        <path id="elipse6" d="M502.62 150.12C508.944 150.12 514.071 145.003 514.071 138.691C514.071 132.379 508.944 127.263 502.62 127.263C496.296 127.263 491.169 132.379 491.169 138.691C491.169 145.003 496.296 150.12 502.62 150.12Z" fill="#CCCCCC"/>
        <path id="elipse5" d="M473.528 116.528C479.852 116.528 484.979 111.412 484.979 105.1C484.979 98.7883 479.852 93.6716 473.528 93.6716C467.204 93.6716 462.077 98.7883 462.077 105.1C462.077 111.412 467.204 116.528 473.528 116.528Z" fill="#F1F1F1"/>
        <path id="elipse9" d="M636.549 116.528C642.873 116.528 648 111.412 648 105.1C648 98.7883 642.873 93.6716 636.549 93.6716C630.225 93.6716 625.098 98.7883 625.098 105.1C625.098 111.412 630.225 116.528 636.549 116.528Z" fill="#F1F1F1"/>
        <path id="elipse8" d="M580.48 116.528C586.804 116.528 591.931 111.412 591.931 105.1C591.931 98.7883 586.804 93.6716 580.48 93.6716C574.156 93.6716 569.029 98.7883 569.029 105.1C569.029 111.412 574.156 116.528 580.48 116.528Z" fill="#F1F1F1"/>
        <path id="Rectangle 207" d="M452.949 0H431.71V14.6093H452.949V0Z" fill="#3F3D56"/>
        <path id="Rectangle 208" d="M257.958 0H236.719V14.6093H257.958V0Z" fill="#F1F1F1"/>
        <path id="Rectangle 209" d="M329.898 0H308.659V14.6093H329.898V0Z" fill="#CCCCCC"/>
        <path id="line4" d="M282.763 105.868C282.586 105.868 282.417 105.798 282.292 105.674C282.167 105.549 282.097 105.38 282.097 105.204V72.4092C282.098 71.5285 282.449 70.6842 283.073 70.0615C283.697 69.4387 284.543 69.0884 285.425 69.0874H317.827C318.003 69.0874 318.173 69.1574 318.297 69.282C318.422 69.4066 318.492 69.5756 318.492 69.7518C318.492 69.928 318.422 70.097 318.297 70.2216C318.173 70.3462 318.003 70.4161 317.827 70.4161H285.425C284.896 70.4167 284.388 70.6269 284.014 71.0005C283.64 71.3742 283.429 71.8808 283.428 72.4092V105.204C283.428 105.38 283.358 105.549 283.234 105.674C283.109 105.798 282.939 105.868 282.763 105.868Z" fill="#3F3D56"/>
        <path id="elipse2" d="M319.349 80.9321C325.673 80.9321 330.8 75.8154 330.8 69.5036C330.8 63.1919 325.673 58.0752 319.349 58.0752C313.025 58.0752 307.899 63.1919 307.899 69.5036C307.899 75.8154 313.025 80.9321 319.349 80.9321Z" fill="#E6E6E6"/>
        <path id="line5" d="M539.044 105.204H537.713V72.4092C537.714 71.5285 538.065 70.6842 538.689 70.0615C539.313 69.4387 540.159 69.0884 541.041 69.0874H573.442V70.4161H541.041C540.512 70.4167 540.004 70.6269 539.63 71.0005C539.255 71.3742 539.045 71.8808 539.044 72.4092V105.204Z" fill="#3F3D56"/>
        <path id="elipse7" d="M574.965 80.9321C581.289 80.9321 586.416 75.8154 586.416 69.5036C586.416 63.1919 581.289 58.0752 574.965 58.0752C568.641 58.0752 563.514 63.1919 563.514 69.5036C563.514 75.8154 568.641 80.9321 574.965 80.9321Z" fill="#E6E6E6"/>
    </g>
</svg>
